<svg viewBox="0 0 115 59" version="1.1" xmlns="http://www.w3.org/2000/svg" xmlns:xlink="http://www.w3.org/1999/xlink">
    <defs>
        <polygon id="path-1" points="0 0.0470535264 13.9252768 0.0470535264 13.9252768 16.9898355 0 16.9898355"></polygon>
        <polygon id="path-3" points="0.024 0.0667714286 72.9238571 0.0667714286 72.9238571 58.8571429 0.024 58.8571429"></polygon>
    </defs>

    <g id="logo_anyclip_full" stroke="none" stroke-width="1" fill="none" fill-rule="evenodd">
        <g id="Group-13">
            <g id="Group-3" transform="translate(0.000000, 22.000000)">
                <mask id="mask-2" fill="white">
                    <use xlink:href="#path-1"></use>
                </mask>
                <g id="Clip-2"></g>
                <path d="M9.67719375,11.5576342 C9.67719375,11.5104592 9.67777708,11.4632842 9.67719375,11.4161092 C9.64933958,9.5026175 9.93531875,9.7584675 7.98873542,9.7597425 C7.14465208,9.7601675 6.28365208,9.77475917 5.46086042,9.9327175 C4.58454792,10.1010175 4.27858958,10.7312925 4.31271458,11.8763842 C4.33940208,12.7788008 4.70223542,13.3281842 5.56017292,13.4382592 C6.46740208,13.5549925 7.40044375,13.5710008 8.31569375,13.5195758 C9.67967292,13.4426508 9.67719375,13.4010008 9.67719375,12.0531842 C9.67719375,11.8880008 9.67719375,11.7228175 9.67719375,11.5576342 L9.67719375,11.5576342 Z M-1.45833333e-05,11.6463175 C0.0997354167,11.2619758 0.22281875,10.8817425 0.29544375,10.4927258 C0.68613125,8.4014425 2.29700625,7.27065917 4.29594375,7.05660083 C5.82558958,6.8926925 7.38863125,7.02288417 8.93679792,7.0218925 C9.76979792,7.02132583 9.86036042,6.92555917 9.78933958,6.1234425 C9.64379792,4.4795425 8.96523542,3.88440083 7.22486042,3.79118417 C5.44540208,3.6958425 3.69773542,3.82943417 1.87044375,4.4340675 C1.68421458,3.24420917 1.50075625,2.1428925 1.35711042,1.03675917 C1.34340208,0.9312175 1.55938125,0.7157425 1.69981875,0.685000833 C4.27013125,0.122584167 6.85531875,-0.238099167 9.47798542,0.3430175 C12.1651104,0.938584167 13.7221729,2.72585083 13.7988813,5.3966925 C13.8618812,7.59068417 13.8303813,9.7869425 13.8526938,11.9820675 C13.8624646,12.9489425 13.9075271,13.9155342 13.9248813,14.8824092 C13.9359646,15.5034758 13.7157563,16.0460592 13.0574646,16.2054342 C9.82550625,16.9872925 6.56846458,17.3785758 3.29683958,16.4462675 C1.41719375,15.9106258 0.43413125,14.6081425 0.19438125,12.7415425 C0.16506875,12.5138842 0.0664854167,12.2945842 -1.45833333e-05,12.0713175 L-1.45833333e-05,11.6463175 Z" id="Fill-1" fill="#F85820" mask="url(#mask-2)"></path>
            </g>
            <g id="Group-6" transform="translate(42.000000, 0.000000)">
                <mask id="mask-4" fill="white">
                    <use xlink:href="#path-3"></use>
                </mask>
                <g id="Clip-5"></g>
                <path d="M38.3450487,17.4994857 C38.3358571,16.0832 37.0282857,14.8064857 35.6237143,14.8420571 C34.2332857,14.8774857 32.9681429,16.1530571 32.9721334,17.5160571 C32.9761429,18.9433429 34.319,20.2496286 35.7487143,20.2169143 C37.1135714,20.1857714 38.354,18.8873429 38.3450487,17.4994857 M33.2245714,30.8949143 C33.2245714,33.3939143 33.2487143,35.8932 33.2088571,38.3914857 C33.198,39.0762 33.443,39.2527714 34.0734286,39.2309143 C35.1431429,39.1939143 36.217,39.1823429 37.2854286,39.2343429 C38.0037143,39.2693429 38.1774286,38.9684857 38.168,38.3137714 C38.1392857,36.3389143 38.1577143,34.3632 38.1577143,32.3879143 C38.1577143,29.3890571 38.1508571,26.3903429 38.1634286,23.3916286 C38.1655714,22.8344857 38.072,22.4974857 37.385,22.5284857 C36.2687143,22.5787714 35.1472857,22.5722 34.0302857,22.5300571 C33.4168571,22.5069143 33.2014286,22.6816286 33.2104286,23.3267714 C33.2454286,25.8490571 33.2247143,28.3720571 33.2245714,30.8949143 M28.6351429,22.4924857 C28.6775714,22.4926286 28.72,22.4926286 28.7625714,22.4927714 C28.7625714,20.6850571 28.764,18.8774857 28.762,17.0697714 C28.7608571,16.1132 28.7582857,16.1120571 27.8337143,16.1106286 C26.811,16.1092 25.7882857,16.1096456 24.7654286,16.1104857 C23.804036,16.1116286 23.7962857,16.1126286 23.8054286,17.1022 C23.85,21.9530571 23.8928571,26.8039143 23.9517143,31.6547714 C23.9638571,32.6500571 24.0037143,33.6482 24.0965714,34.6389143 C24.4762857,38.6927714 27.2914286,39.8717714 30.6801429,39.2296286 C31.1138571,39.1473429 31.3481429,39.0063429 31.2322857,38.4700571 C31.0374286,37.5686286 30.9034286,36.6507714 30.8057143,35.7332 C30.7454286,35.1693429 30.6128571,34.9440571 29.9688571,35.0852 C29.1722857,35.2596286 28.8398571,34.9443429 28.7584286,34.1106286 C28.6984286,33.4972 28.6427143,32.8802 28.6404286,32.2644857 C28.629,29.0073429 28.6351429,25.7499143 28.6351429,22.4924857 M13.2311429,22.7410571 C16.0078571,15.1499143 18.7455714,7.66548571 21.5251429,0.0667714286 C38.6707143,11.6749143 55.748,23.2364857 72.9238571,34.8650571 C63.6388571,37.9214857 54.4761429,40.9377714 45.2377143,43.9790571 L45.2377143,39.1939143 C45.7621429,39.2620571 46.2664286,39.3359143 46.7725714,39.3920571 C51.145,39.8773429 54.6284286,37.5660571 55.5024286,33.1863429 C55.9005714,31.1910571 55.9285714,29.2052 55.3927143,27.2527714 C54.548,24.1750571 52.3838571,22.5940571 49.3054286,22.1212 C46.9627143,21.7612 44.6601429,22.0309143 42.3797143,22.5589143 C41.1775714,22.8372 40.8284286,23.3396286 40.828,24.5904857 C40.8257143,31.2087714 40.8157143,37.8269143 40.8424286,44.4450571 C40.8454286,45.1759143 40.6584286,45.5067714 39.9184286,45.7490571 C27.1667143,49.9224857 14.4274286,54.1339143 1.685,58.3356286 C1.19257143,58.4979143 0.695428571,58.6467714 0.024,58.8572 C3.10071429,50.4432 6.12728571,42.1669143 9.19142857,33.7872 C9.72157143,35.5589143 10.5872857,36.9730571 12.0417143,37.9647714 C13.8667143,39.2090571 15.8995714,39.6394857 18.0741429,39.4027714 C19.1098571,39.2900571 20.1361429,39.0923429 21.1682857,38.9443429 C21.6481429,38.8756286 21.9464286,38.7722 21.8062857,38.1362 C21.582,37.1192 21.4702857,36.0766286 21.3311429,35.0422 C21.2672857,34.5679143 21.0418571,34.5896286 20.6365714,34.6540571 C19.3598571,34.8572 18.0615714,35.1750571 16.7898571,35.1064857 C14.0461429,34.9589143 13.5888571,33.1674857 13.3755714,31.4609143 C13.2715714,30.6284857 13.3428571,29.7407714 13.5121429,28.9143429 C13.8737143,27.1490571 14.9705714,26.2233429 16.781,26.2624857 C17.9275714,26.2873429 19.0801429,26.5509143 20.2064286,26.8096286 C20.8224286,26.9510571 21.0038571,26.8064857 21.07,26.2132 C21.1724286,25.2949143 21.3187143,24.3783429 21.5091429,23.4743429 C21.6271429,22.9143429 21.3932857,22.6903429 20.9132857,22.5463429 C18.3848571,21.7876286 15.8712857,21.6930571 13.2311429,22.7410571" id="Fill-4" fill="#F85820" mask="url(#mask-4)"></path>
            </g>
            <path d="M33,23.0117442 C34.3564139,23.0117442 35.6466854,22.9854968 36.9334161,23.0395112 C37.1315599,23.0477998 37.3884811,23.3955083 37.4915895,23.6376748 C38.7284656,26.5433965 39.9399895,29.459479 41.1627023,32.3710027 C41.3090087,32.7192639 41.48265,33.0563353 41.8279499,33.3994851 C42.0962018,32.7290721 42.3764923,32.0629415 42.6304393,31.3874172 C43.5952395,28.8224969 44.5593315,26.2570239 45.5038782,23.6849201 C45.6792192,23.2074943 45.9386898,22.9859113 46.481567,23.0006927 C47.6321889,23.0323277 48.7843688,23.0103628 50,23.0103628 C49.2521807,24.9497669 48.5264561,26.8387485 47.7954911,28.7259342 C46.3314366,32.5062458 44.8950004,36.2970563 43.3859067,40.0603761 C42.6253405,41.9569556 41.4061685,43.5624656 39.6698964,44.7397291 C38.481317,45.5456614 37.1447317,45.9668626 35.6952653,46 C35.4947138,46.0042996 35.1470061,45.8868772 35.1103233,45.7595084 C34.8022728,44.687787 34.5507336,43.6004553 34.2922544,42.5584348 C35.235668,42.2596292 36.1231369,42.0770028 36.9120296,41.6990407 C37.6152347,41.3619693 38.2653275,40.8664466 38.838514,40.3373549 C39.6315141,39.6053297 39.8443876,38.7976015 39.3427255,37.685542 C37.2182389,32.9762118 35.204084,28.2196363 33.1514051,23.4794999 C33.0992843,23.3591765 33.0696832,23.2295974 33,23.0117442" id="Fill-7" fill="#F85820"></path>
            <path d="M18.0151163,31.5125863 C18.0151163,29.2936364 18.0330178,27.0744148 18.0044643,24.8558724 C17.9955875,24.1769542 18.2578951,23.8091672 18.9945163,23.6595796 C21.8020802,23.0893535 24.6448552,22.7771354 27.490885,23.186633 C30.7625543,23.6574058 32.0733524,24.9629342 32.6735678,28.0037325 C32.7783133,28.5340142 32.8194422,29.0800564 32.8312778,29.6199845 C32.8937109,32.4711151 32.9235959,35.3229249 32.9989002,38.1736479 C33.0147304,38.7726774 32.8658971,39.03612 32.1455499,38.9960397 C31.1383361,38.9399274 30.1234292,38.9543291 29.1142922,38.9922355 C28.524433,39.0142457 28.3510408,38.8275669 28.3553312,38.2921223 C28.380482,35.1903205 28.3785587,32.088247 28.3684984,28.9863094 C28.363912,27.5460028 27.5163316,26.7604304 25.9415985,26.7600228 C24.8857107,26.759751 23.8299708,26.8593402 22.773787,26.8672204 C22.1136537,26.8721115 22.0274014,27.1909871 22.0294726,27.6932806 C22.0438234,31.1575706 22.0373137,34.6218607 22.036574,38.0861507 C22.0364261,38.9802794 22.0350946,38.9808228 21.0697494,38.9817739 C20.3300214,38.9824532 19.5879262,38.9480793 18.8514529,38.9920996 C18.2148429,39.0301419 17.9902615,38.8517509 18.0003218,38.2370969 C18.0376041,35.9961368 18.0151163,33.7542257 18.0151163,31.5125863" id="Fill-9" fill="#F85820"></path>
            <path d="M87.0144801,30.3741963 C87.0146243,29.1688097 87.0281765,27.9631273 87.0075599,26.7578887 C87.000063,26.3183693 87.1226089,25.9979389 87.5748752,26 C88.6874476,26.0050398 89.8089586,25.9754525 90.9091322,26.1112582 C91.8458152,26.2267966 92.4334587,26.922394 92.6670167,27.8493641 C93.1063076,29.5923519 93.1188505,31.3514648 92.6575014,33.0923815 C92.4062102,34.0400627 91.7940575,34.7424652 90.8399298,34.8791585 C89.8375046,35.0228049 88.8073984,35.0083071 87.7909885,34.9855249 C87.2383787,34.9732461 86.9787256,34.6162754 87.0013605,33.9900602 C87.0451887,32.7864488 87.0141918,31.5797308 87.0144801,30.3741963" id="Fill-11" fill="#F85820"></path>
        </g>
    </g>
</svg>
