<?xml version="1.0" encoding="UTF-8"?>
<svg width="253px" height="158px" viewBox="0 0 253 158" version="1.1" xmlns="http://www.w3.org/2000/svg" xmlns:xlink="http://www.w3.org/1999/xlink">
    <!-- Generator: Sketch 63.1 (92452) - https://sketch.com -->
    <title>image (2)</title>
    <desc>Created with Sketch.</desc>
    <g id="Page-1" stroke="none" stroke-width="1" fill="none" fill-rule="evenodd">
        <g id="image-(2)" transform="translate(3.000000, 3.000000)" fill="#FFFFFF" fill-rule="nonzero">
            <path d="M126.839018,2 C102.394001,2 81.7446932,20.8705632 75.3196821,46.6397196 C74.5264132,46.7023698 73.7306143,46.7023698 72.9373454,46.6397196 C62.764194,46.6397196 54.5094232,56.6318737 54.5094232,68.9461703 C54.5094232,69.0723737 54.5074683,69.1914781 54.5094232,69.3168928 C54.1836198,69.3209463 53.8577907,69.3209463 53.5319874,69.3168928 C33.3661844,69.3168928 17,84.3177442 17,102.789978 C17,121.263 33.3661844,136.263852 53.5319874,136.263852 C61.5189408,136.263852 68.8992324,133.892805 74.9130689,129.903989 C78.5054711,142.912405 88.6414799,152.309825 100.59161,152.309825 C108.688687,152.309825 115.950383,147.994458 120.913802,141.168431 C125.729302,144.217821 131.393217,145.975203 137.448757,145.975203 C145.688541,145.975203 153.207628,142.730987 158.850691,137.397316 C166.455141,146.950125 177.636354,153 190.108435,153 C205.408563,153 218.781187,143.887326 225.967295,130.372519 C238.139628,130.372519 248,118.78547 248,104.490569 C248,90.1964563 238.138976,78.5849548 225.967295,78.5849548 C223.788916,78.5849548 221.682868,78.9769741 219.695415,79.6695153 C213.13617,70.3099558 203.329882,63.8223123 192.123256,62.2424035 C189.830843,30.6268746 166.808321,5.7711153 138.751353,5.7711153 L126.839018,2 Z" id="Path" stroke="#013A81" stroke-width="2.587"></path>
            <path d="M125.743333,0 C103.298729,0.0804446564 81.355512,18.145002 74.3812555,43.9440766 C64.2298014,37.7411626 50.5941645,44.9165105 47.2991474,57.9666843 C46.7597962,59.9462538 46.4050288,62.020464 46.3173187,64.1041384 C30.3907482,60.7246741 11.5540375,67.004878 3.01474606,84.5110549 C-2.69687873,95.9326187 0.0790782638,111.425313 8.20992894,120.051031 C21.3958883,135.16043 42.9863012,136.756704 58.7950523,127.789491 C63.9241254,144.294053 80.5648126,153.631154 94.4066335,147.556005 C98.8150444,145.836698 102.831378,142.431996 106.02494,138.633746 C117.896558,145.533847 132.925737,144.307461 143.641415,134.961685 C160.828654,155.759783 192.178444,154.913537 208.339344,132.866969 C210.270274,131.278581 210.820753,126.633297 213.637292,127.690907 C226.692341,128.782431 238.984836,114.70225 237.937552,98.8057548 C237.510784,82.4329013 223.464088,69.8882669 210.28271,73.2480143 C207.564354,74.6045321 206.522961,69.7620792 204.289628,68.5404246 C197.968615,61.849322 189.578561,58.2032862 181.707568,56.3656779 C179.308633,27.8149229 158.813287,4.45758037 135.507292,0.748450773 C135.300018,0.749823128 135.09274,0.749823128 134.885467,0.748450773 L125.743333,0 Z" id="Path" stroke="#000000" stroke-width="5.587"></path>
        </g>
    </g>
</svg>