<?xml version="1.0" encoding="utf-8"?>
<!-- Generator: Adobe Illustrator 25.2.0, SVG Export Plug-In . SVG Version: 6.00 Build 0)  -->
<svg version="1.1" id="Layer_1" xmlns="http://www.w3.org/2000/svg" xmlns:xlink="http://www.w3.org/1999/xlink" x="0px" y="0px"
	 viewBox="0 0 955.45 186.12" style="enable-background:new 0 0 955.45 186.12;" xml:space="preserve">
<g>
	<rect x="16.35" y="25.22" width="21.45" height="129.55"/>
	<polygon points="100.55,25.22 76.46,25.22 45,78.13 45,103.8 79.63,154.77 104.06,154.77 59.06,91.85 	"/>
	<polygon points="167.01,25.4 121.66,154.77 143.63,154.77 177.55,57.74 211.13,154.77 232.93,154.77 187.93,25.4 	"/>
	<polygon points="165.6,113.64 160.68,127.88 194.25,127.88 189.16,113.64 	"/>
	<rect x="253.68" y="25.22" width="21.45" height="129.55"/>
	<polygon points="331.2,82 282.34,82 282.34,96.42 331.2,96.42 331.2,154.77 352.3,154.77 352.3,25.22 331.2,25.22 	"/>
	<rect x="378.5" y="25.22" width="21.45" height="129.55"/>
	<polygon points="447.07,25.22 425.63,25.22 425.63,154.77 506.66,154.77 506.66,138.78 447.07,138.78 	"/>
	<rect x="563.3" y="25.22" width="21.09" height="129.55"/>
	<path d="M651.63,44.21c-5.45-5.74-12.3-10.34-20.57-13.8c-8.26-3.46-17.84-5.19-28.74-5.19H591.6v16h5.1
		c10.08,0,18.28,1.32,24.61,3.96s11.34,6.09,15.03,10.37c3.69,4.28,6.18,9.05,7.47,14.33c1.29,5.27,1.93,10.61,1.93,16
		c0,17.34-3.16,30.59-9.49,39.73s-16.64,13.71-30.94,13.71H591.6v15.47h20.74c1.64,0,4.16-0.2,7.56-0.62
		c3.4-0.41,7.15-1.35,11.25-2.81c4.1-1.46,8.35-3.66,12.74-6.59c4.39-2.93,8.35-6.94,11.87-12.04s6.42-11.43,8.7-18.98
		s3.43-16.67,3.43-27.33c0-7.73-1.35-15.26-4.04-22.59C661.15,56.49,657.08,49.95,651.63,44.21z"/>
	<rect x="727.12" y="25.22" width="52.38" height="16"/>
	<rect x="727.12" y="82" width="46.93" height="14.41"/>
	<rect x="727.12" y="138.78" width="52.38" height="16"/>
	<rect x="698.47" y="25.22" width="21.45" height="129.55"/>
	<polygon points="888.67,25.22 861.25,121.2 861.25,155.48 870.39,155.48 912.57,25.22 	"/>
	<polygon points="802.71,25.22 842.96,155.48 854.04,155.48 854.04,126.83 826.79,25.22 	"/>
</g>
</svg>
