<?xml version="1.0" encoding="UTF-8"?>
<svg width="361px" height="207px" viewBox="0 0 361 207" version="1.1" xmlns="http://www.w3.org/2000/svg" xmlns:xlink="http://www.w3.org/1999/xlink">
    <!-- Generator: Sketch 63.1 (92452) - https://sketch.com -->
    <title>image (2)</title>
    <desc>Created with Sketch.</desc>
    <g id="Page-1" stroke="none" stroke-width="1" fill="none" fill-rule="evenodd">
        <g id="image-(2)" transform="translate(3.000000, 3.000000)" fill="#FFFFFF" fill-rule="nonzero">
            <path d="M181.86387,3 C146.730772,3 117.052979,27.8691528 107.818764,61.8298291 C106.678654,61.9123946 105.534909,61.9123946 104.394799,61.8298291 C89.7736468,61.8298291 77.9096471,74.9982971 77.9096471,91.2270721 C77.9096471,91.3933931 77.9068375,91.5503586 77.9096471,91.7156401 C77.441393,91.7209823 76.9731018,91.7209823 76.5048477,91.7156401 C47.521962,91.7156401 24,111.484974 24,135.829176 C24,160.174418 47.521962,179.943752 76.5048477,179.943752 C87.9839323,179.943752 98.5911046,176.818995 107.234367,171.562211 C112.397474,188.705752 126.965244,201.090432 144.140322,201.090432 C155.777681,201.090432 166.214404,195.403292 173.347976,186.407403 C180.268954,190.426135 188.409299,192.742155 197.1125,192.742155 C208.954959,192.742155 219.761613,188.466665 227.871988,181.437523 C238.801328,194.026985 254.871297,202 272.796538,202 C294.786332,202 314.005862,189.990582 324.333947,172.179678 C341.828383,172.179678 356,156.909328 356,138.070352 C356,119.232416 341.827447,103.929841 324.333947,103.929841 C321.203118,103.929841 318.176243,104.446476 315.319818,105.359163 C305.892677,93.0243788 291.798792,84.4744381 275.692298,82.3923066 C272.397575,40.7268083 239.308929,7.96988043 198.984629,7.96988043 L181.86387,3 Z" id="Path" stroke="#013A81" stroke-width="2.587"></path>
            <path d="M180.161666,0 C148.003641,0.106186946 116.56399,23.9514027 106.571463,58.006181 C92.0267322,49.8183346 72.4899584,59.2897938 67.7689465,76.5160233 C66.9961786,79.129055 66.4878773,81.8670125 66.3622088,84.6174627 C43.5430468,80.1565699 16.5543142,88.446439 4.31944708,111.554592 C-3.86401532,126.631057 0.11330121,147.081413 11.7629654,158.467361 C30.6554534,178.411768 61.5896165,180.51885 84.2399699,168.682129 C91.5887679,190.46815 115.431097,202.793124 135.263286,194.773927 C141.579538,192.504441 147.334034,188.010235 151.909683,182.996545 C168.919018,192.104679 190.452421,190.485848 205.805557,178.149424 C230.43097,205.602913 275.348107,204.485868 298.50301,175.384399 C301.269594,173.287727 302.058305,167.155951 306.093767,168.551997 C324.79869,169.992809 342.411046,151.40697 340.910526,130.423596 C340.299064,108.81143 320.173336,92.2525123 301.287413,96.6873789 C297.392625,98.4779823 295.900545,92.0859446 292.700686,90.4733604 C283.644108,81.641105 271.623065,76.8283378 260.345717,74.4026948 C256.908588,36.7156983 227.543407,5.88400609 194.151204,0.987955021 C193.854228,0.989766529 193.557246,0.989766529 193.26027,0.987955021 L180.161666,0 Z" id="Path" stroke="#000000" stroke-width="5.587"></path>
        </g>
    </g>
</svg>