<svg width="50" height="50" xmlns="http://www.w3.org/2000/svg"><path d="M243.232 51.294c-37.514 0-69.203 23.924-79.063 56.594a28.077 28.077 0 00-13.875-3.656c-15.612 0-28.28 12.668-28.28 28.28 0 .16-.003.311 0 .47a72.972 72.972 0 00-14.657-1.5c-30.947 0-56.063 19.018-56.063 42.437 0 23.42 25.116 42.438 56.063 42.438 12.257 0 23.583-3.006 32.812-8.063 5.513 16.492 21.068 28.406 39.407 28.406 12.426 0 23.57-5.471 31.187-14.125 7.39 3.866 16.082 6.094 25.375 6.094 12.645 0 24.184-4.113 32.844-10.875 11.67 12.111 28.829 19.781 47.969 19.781 23.48 0 44.002-11.553 55.03-28.687a35.14 35.14 0 005.095.375c18.68 0 33.812-14.69 33.812-32.813 0-18.122-15.133-32.843-33.812-32.843-3.343 0-6.575.497-9.625 1.375-10.066-11.866-25.115-20.091-42.313-22.094-3.518-40.082-38.849-71.594-81.906-71.594z" stroke-width="2.587" stroke="#013a81" fill="#fff"/><path d="M241.4 49.298c-34.29.102-67.814 23.007-78.469 55.719-15.509-7.865-36.341 1.233-41.375 17.78-.824 2.51-1.366 5.14-1.5 7.782-24.332-4.285-53.11 3.678-66.156 25.875-8.726 14.482-4.485 34.126 7.937 45.063 20.145 19.158 53.13 21.182 77.282 9.812 7.836 20.927 33.259 32.766 54.406 25.063 6.735-2.18 12.871-6.497 17.75-11.313 18.137 8.749 41.098 7.194 57.469-4.656 26.258 26.371 74.153 25.298 98.843-2.656 2.95-2.014 3.791-7.904 8.094-6.563 19.945 1.384 38.725-16.469 37.125-36.625-.652-20.76-22.112-36.666-42.25-32.406-4.153 1.72-5.744-4.42-9.156-5.969-9.657-8.484-22.475-13.107-34.5-15.437-3.665-36.201-34.977-65.817-70.583-70.52a86.443 86.443 0 00-14.917-.95z" stroke-width="5.587" stroke="#000" fill="#fff"/></svg>